<svg xmlns="http://www.w3.org/2000/svg" version="1.1" xmlns:xlink="http://www.w3.org/1999/xlink" xmlns:svgjs="http://svgjs.dev/svgjs" viewBox="0 0 5.267931454143979 4.2707953017789935"><g transform="matrix(1,0,0,1,2.6337581582773972,4.06346112873714)"><g><path d=" M -1.47368589945354 -1.7246037451209386 L -1.4253847747110897 -1.8948858679307459 C -1.4122861646114422 -1.9410640707266258 -1.438904323777018 -1.997468623757707 -1.478348205331832 -2.0086570198844895 L -1.6765296589974832 -2.06487188822881 C -1.717897632335459 -2.0766060597764113 -1.7420505289544435 -2.0647469879361426 -1.7722208330127294 -2.03900300314298 L -1.9284283581828823 -1.9097234259460538 C -1.9443391122484015 -1.8976053442056724 -1.952854142512276 -1.8969023082142047 -1.9663227849944076 -1.900722736159935 L -2.08465442965885 -1.934287924540282 L -2.0592758725907827 -2.0237581924572994 L -1.994818797854867 -2.0054747158598745 C -1.9698056046737653 -1.9983796353892322 -1.9589640899662633 -2.0036200131281947 -1.9507358252230944 -2.010641099889966 C -1.9355142293387468 -2.023994115232338 -1.8842205490965718 -2.0655748603821484 -1.877671244046748 -2.0886639617800884 C -1.8749423669426546 -2.098284420695897 -1.8832122651167127 -2.1131036239197787 -1.9005290911651678 -2.1180156027071466 L -2.0496462043601964 -2.160313197820592 C -2.0890900859150108 -2.171501593947374 -2.1391765881757885 -2.1451702003025037 -2.155549850800348 -2.087447446807654 L -2.201122098438705 -1.9267857829136552 C -2.2155851470903993 -1.8757973506598713 -2.2010711918549086 -1.8280234550324246 -2.152968897275867 -1.8143790695119584 L -1.9615217648512815 -1.7600744151405028 C -1.919191745621725 -1.7480673558824924 -1.8921665891382942 -1.7663878612534174 -1.8650119277048072 -1.788829437901075 L -1.7103122238470538 -1.9164578110252493 C -1.6981062705875052 -1.9265084182221162 -1.688083419011231 -1.9288626582863362 -1.6755768224206804 -1.925315118051015 L -1.5418524434909449 -1.8873837263041189 L -1.5699598776631052 -1.7882929994712935 L -1.6603921914717032 -1.8139444442497699 C -1.685405384652805 -1.8210395247204123 -1.696246899360307 -1.8157991469814496 -1.7044751641034759 -1.8087780602196781 C -1.720385918168995 -1.7966599784792967 -1.7709904402299987 -1.753844299727496 -1.7764481944381851 -1.7346033818958793 C -1.7802686223839157 -1.7211347394137477 -1.7729607701014385 -1.706588423900275 -1.7556439440529834 -1.7016764451129074 L -1.5795895458936915 -1.651737994108001 C -1.5401456643388773 -1.6405495979812186 -1.4897862743676902 -1.6678430375176696 -1.47368589945354 -1.7246037451209386 M -1.3092352483876222 -2.1501047899965133 L -1.199816573490354 -2.3139234506665542 C -1.1659356640043979 -2.3646490257978865 -1.1822500299133099 -2.421242677959504 -1.2163442689360087 -2.444015092532032 L -1.7011477165026774 -2.767827719258465 C -1.7377366559416714 -2.7922664080680066 -1.794324026850987 -2.783163141974371 -1.8276495115912716 -2.73326913364847 L -1.9370681864885397 -2.569450472978429 C -1.9665056980091244 -2.5253774322905502 -1.966549666775237 -2.4748997335836203 -1.9224766260873578 -2.4454622220630355 L -1.4293575104663723 -2.1160953478798885 C -1.386116036583925 -2.0872132611049747 -1.3392281846538783 -2.1052001825032027 -1.3092352483876222 -2.1501047899965133 M -1.3848669995419436 -2.247520590651904 L -1.818113305171848 -2.5368968831467096 C -1.821439572393575 -2.539118582129395 -1.8222679985728556 -2.5432795567827045 -1.82004629959017 -2.5466058240044314 L -1.7595050023119863 -2.6372466057964843 C -1.7572833033293005 -2.640572873018211 -1.7531223286759914 -2.641401299197492 -1.7497960614542647 -2.6391796002148062 L -1.3165497558243597 -2.3498033077200007 C -1.3140550554080648 -2.3481370334829865 -1.3123950624233522 -2.343420634084006 -1.314616761406038 -2.340094366862279 L -1.3751580586842218 -2.249453585070226 C -1.3773797576669076 -2.246127317848499 -1.3823722991256484 -2.24585431641489 -1.3848669995419436 -2.247520590651904 M -0.9514759422920259 -2.569172549078595 C -0.9384570884693713 -2.5784735944577095 -0.9345061014643268 -2.5935861621312046 -0.9432258315072467 -2.6057913375899435 C -0.956596084239724 -2.6245059399600095 -1.0055358219567805 -2.619037661237621 -1.0177434440168682 -2.6361249068798553 L -1.2089961896249117 -2.903825088608193 L -0.8155949176531995 -2.7006615111366425 C -0.7978081363264523 -2.691247138611908 -0.7862992344170943 -2.687179562326111 -0.7643299185913643 -2.702875076403367 L -0.7130681816646615 -2.7394979425836308 C -0.6951672576585113 -2.752286879979913 -0.6919141752704137 -2.7718167917814616 -0.7041217973305015 -2.7889040374236957 L -1.063955990434997 -3.2925709446876503 C -1.0872086038827833 -3.3251180792442865 -1.065590686966876 -3.3688292410707232 -1.0777983090269638 -3.385916486712958 C -1.0830301470527157 -3.393239591988201 -1.0941900966536005 -3.395098496209971 -1.1055815937484232 -3.3869600815032457 L -1.2447205939780455 -3.2875551590139587 C -1.2561120910728685 -3.2794167443072335 -1.2579709952946385 -3.2682567947063488 -1.2527391572688866 -3.2609336894311056 C -1.2405315352087987 -3.243846443788871 -1.192173112827937 -3.2501284008751754 -1.1689204993801505 -3.217581266318539 L -0.9631348703672404 -2.929539125492303 L -1.3731619240608766 -3.157694369217526 C -1.3861824089510975 -3.165597974295181 -1.401760518213818 -3.1753612991283893 -1.4269845474952116 -3.1573405237063543 L -1.524625951165122 -3.0875826833629954 C -1.536017448259945 -3.07944426865627 -1.537876352481715 -3.068284319055385 -1.532644514455963 -3.060961213780142 C -1.520436892395875 -3.0438739681379077 -1.4720784700150134 -3.050155925224212 -1.448825856567227 -3.017608790667575 L -1.127358475651579 -2.5676446554220718 C -1.1041058622037927 -2.5350975208654347 -1.1257237791197001 -2.4913863590389984 -1.1135161570596122 -2.474299113396764 C -1.1082843190338603 -2.4669760081215206 -1.0971243694329755 -2.4651171038997504 -1.0857328723381527 -2.473255518606476 M -0.47304329181267113 -3.365286775717535 C -0.4702285266309739 -3.35465300418661 -0.4594810661553467 -3.349222341858235 -0.4517474141328559 -3.3512694438085604 C -0.4401469360991199 -3.354340096734048 -0.3783058793007399 -3.42553478539872 -0.36590922818124627 -3.4412294673331063 C -0.3597109026214995 -3.4490768083002994 -0.3580902218320188 -3.4546780040457286 -0.3619285379888785 -3.4691786015878985 L -0.3839348839548745 -3.552315360829674 C -0.39442628145029124 -3.5919503274449385 -0.4433300513143708 -3.620383077805766 -0.5003657349802398 -3.6052857009221175 L -0.6763063184919036 -3.558714131552219 C -0.728508469643716 -3.544896193387524 -0.7614903549204239 -3.5092704268190125 -0.7486959677308913 -3.4609351016784453 L -0.594139770481338 -2.8770443739803966 C -0.5813453832918055 -2.8287090488398294 -0.5350573353379836 -2.8140660772621513 -0.4828551841861713 -2.8278840154268465 L -0.29241400313233745 -2.878293900953605 C -0.23344490646084576 -2.8939030533248347 -0.20745734459322224 -2.9442284607069555 -0.21718107885726695 -2.9809633078137865 L -0.3013681465643912 -3.299009747238717 C -0.30469468723366966 -3.3115769317752646 -0.31350873470367424 -3.3175193695912206 -0.3251092127374103 -3.3144487166657326 C -0.34347663629082575 -3.3095868495337104 -0.4358542146362898 -3.2365157675721874 -0.4559845177782741 -3.2187739836874756 C -0.4660496693492663 -3.2099030917451197 -0.47128128840620176 -3.202311638521717 -0.46769885999313265 -3.188777747482358 L -0.4449248507957647 -3.102740868732149 C -0.4415983101264862 -3.0901736841956016 -0.43181755615367035 -3.084487134123436 -0.4231171976283683 -3.086790123817552 C -0.40958330658900954 -3.090372552230621 -0.38945300344702516 -3.108114336115333 -0.38945300344702516 -3.108114336115333 L -0.354396382547706 -2.9756755452301795 L -0.4607340978569533 -2.947527893413208 C -0.4675010433766327 -2.9457366792066733 -0.47483660885624457 -2.950001591760797 -0.4766278230627792 -2.956768537280477 L -0.6068746846522206 -3.448822147211448 C -0.6086658988587552 -3.455589092731128 -0.604400986304631 -3.46292465821074 -0.5976340407849516 -3.4647158724172744 L -0.5057969230178745 -3.4890252080773863 M -0.0054454291114562625 -2.9062546058260077 L 0.17129928926852134 -2.8967517365339255 C 0.21923006035461695 -2.894174687234378 0.26836350331978265 -2.9325921934312773 0.270564732929813 -2.9735330604006505 L 0.28162456950703874 -3.1792359529784777 C 0.28393317617121694 -3.2221739354097716 0.2670329075554093 -3.2431114835163086 0.23526165002934457 -3.266851474990875 L 0.07467668957247006 -3.3906515980726555 C 0.059344028201991805 -3.403493307277362 0.05677786322570211 -3.4116428347062664 0.05752950260473688 -3.425622642939711 L 0.06413319143482799 -3.548445243847831 L 0.1569990604141382 -3.5434522108299573 L 0.15340192910018613 -3.4765488428556153 C 0.15200602739626445 -3.450586341850647 0.1595112925002819 -3.441169814055413 0.16817618091648134 -3.4346952709259853 C 0.18456108854499387 -3.4227984309251656 0.23644304198804278 -3.381954056686682 0.2604084275310906 -3.380665532036908 C 0.27039400484069387 -3.3801286467661686 0.2830209599371047 -3.391467077212806 0.2839873534244351 -3.4094411163700915 L 0.2923090751208914 -3.564217564668942 C 0.29451030473092177 -3.6051584316383156 0.2577677828334994 -3.6481931511635715 0.19785431897587985 -3.651414462788006 L 0.031095177905505533 -3.6603804468093495 C -0.021828381835391708 -3.6632259387442665 -0.06521739676672099 -3.638519798145442 -0.06790182312041657 -3.5885919115974256 L -0.07858584000812492 -3.389878923136321 C -0.08094813519937702 -3.3459423829740667 -0.05711165099392103 -3.323630457447052 -0.02922724733754982 -3.302102335542702 L 0.12941428618447798 -3.1794081472460296 C 0.141912339943297 -3.1697231768154257 0.14642193185443342 -3.1604677146014133 0.14572398100247258 -3.1474864640989293 L 0.13826127573919889 -3.008686939495444 L 0.035409829450285396 -3.014216857784057 L 0.04045655099523304 -3.1080812844943275 C 0.041852452699154746 -3.134043785499296 0.03434718759513733 -3.14346031329453 0.025682299178937884 -3.149934856423957 C 0.0103496378084596 -3.1627765656286635 -0.042584561892623565 -3.202676070663261 -0.06255571651183008 -3.203749841204739 C -0.07653552474527463 -3.2045014805837737 -0.08910879131461155 -3.1941616078680974 -0.09007518480194196 -3.1761875687108114 L -0.09990018525646775 -2.9934515039450718 C -0.10210141486649812 -2.9525106369756986 -0.06436033523811546 -2.9094222289233684 -0.0054454291114562625 -2.9062546058260077 M 1.3278323624197377 -3.1150420381056936 C 1.3490664000301722 -3.1489406464364005 1.3977169756116816 -3.1456057557953394 1.4088648453571597 -3.1634025251689604 C 1.4136425038195075 -3.1710297120433695 1.411109589675453 -3.1820562412315976 1.3992450767597058 -3.18948815439525 L 1.2500912001045967 -3.2829179198811618 C 1.2382266871888494 -3.290349833044814 1.227200158000621 -3.2878169189007593 1.2224224995382733 -3.2801897320263502 C 1.2112746297927952 -3.2623929626527293 1.235506062122305 -3.220074672431356 1.2142720245118706 -3.1861760641006494 L 1.0677571649998723 -2.9522756666187737 L 0.8945746925142772 -2.9734376897681827 L 1.0803725216055793 -3.2700505126618657 C 1.1016065592160138 -3.303949120992572 1.1502571347975232 -3.3006142303515116 1.1614050045430013 -3.3184109997251325 C 1.1661826630053493 -3.3260381865995416 1.1636497488612947 -3.3370647157877698 1.1517852359455474 -3.344496628951422 L 1.0026313592904383 -3.437926394437334 C 0.990766846374691 -3.4453583076009857 0.9797403171864628 -3.4428253934569315 0.974962658724115 -3.4351982065825224 C 0.9638147889786368 -3.4174014372089014 0.9880462213081467 -3.375083146987528 0.9668121836977122 -3.3411845386568215 L 0.6732516137334549 -2.8725362784848025 C 0.6520175761230204 -2.8386376701540956 0.6033670005415108 -2.8419725607951567 0.5922191307960327 -2.8241757914215357 C 0.5874414723336849 -2.8165486045471266 0.5899743864777394 -2.8055220753588985 0.6018388993934867 -2.7980901621952463 L 0.7509927760485958 -2.7046603967093343 C 0.7628572889643431 -2.697228483545682 0.7738838181525713 -2.6997613976897368 0.7786614766149191 -2.707388584564146 C 0.7898093463603972 -2.725185353937767 0.7655779140308875 -2.76750364415914 0.786811951641322 -2.8014022524898468 L 0.8181321571167129 -2.851402699777639 L 0.991314629602308 -2.8302406766282298 L 0.9207114545476132 -2.7175278039286304 C 0.8994774169371786 -2.6836291955979235 0.8508268413556692 -2.6869640862389845 0.8396789716101911 -2.6691673168653636 C 0.8349013131478433 -2.6615401299909545 0.8374342272918978 -2.6505136008027264 0.8492987402076451 -2.643081687639074 L 0.9984526168627541 -2.549651922153162 C 1.0103171297785014 -2.5422200089895104 1.0213436589667297 -2.5447529231335646 1.0261213174290775 -2.5523801100079737 C 1.0372691871745556 -2.5701768793815947 1.0130377548450458 -2.612495169602968 1.0342717924554803 -2.6463937779336746 M 1.838945556014845 -2.5487401231923563 C 1.8707904198350467 -2.5729455905142817 1.915122093902733 -2.552630505617673 1.9318406474083387 -2.5653383759616837 C 1.939005741767884 -2.570784606109117 1.9405336210675392 -2.5819946723375424 1.9320617075048652 -2.593140374674613 L 1.8255576512883918 -2.7332577754834997 C 1.8170857377257177 -2.7444034778205704 1.8058756714972921 -2.7459313571202255 1.798710577137747 -2.7404851269727923 C 1.781992023632141 -2.727777256628781 1.7897021043065955 -2.679625884311957 1.757857240486394 -2.6554204169900313 L 1.3303399437001877 -2.3304620181931774 C 1.3271554573181676 -2.3280414714609847 1.322951682482508 -2.3286144261983557 1.3205311357503156 -2.3317989125803757 L 1.2545712372980677 -2.418576166490425 C 1.2521506905658752 -2.4217606528724454 1.2527236453032458 -2.425964427708105 1.255908131685266 -2.428384974440297 L 1.683425428471472 -2.753343373237151 C 1.7152702922916736 -2.777548840559077 1.7596019663593596 -2.7572337556624675 1.7763205198649654 -2.769941626006479 C 1.7834856142245108 -2.775387856153912 1.785013493524166 -2.786597922382337 1.776541579961492 -2.797743624719408 L 1.6700375237450185 -2.937861025528295 C 1.6615656101823444 -2.9490067278653656 1.650355543953919 -2.9505346071650207 1.6431904495943737 -2.945088377017587 C 1.6264718960887676 -2.932380506673576 1.6341819767632222 -2.8842291343567523 1.6023371129430206 -2.8600236670348265 L 1.142974952336613 -2.5108598009160468 C 1.101576629370351 -2.479392693397543 1.1076944668537951 -2.430031047714623 1.1391615743722987 -2.3886327247483607 L 1.2583735009327834 -2.231796770433868 C 1.2952868385987202 -2.1832333531080605 1.3517191395657613 -2.1783964731668912 1.3835640033859629 -2.202601940488817 M 1.5268164112049756 -1.9335514951968495 L 1.6940368517320992 -1.9851492109400368 C 1.700725669353184 -1.9872131195697644 1.7054323831208302 -1.9855258598062866 1.713524408087163 -1.9796505613505273 L 1.7846653730206803 -1.9220661614810481 C 1.7846653730206803 -1.9220661614810481 1.7599461647484347 -1.8495543642174763 1.746568529506265 -1.8454265469580213 L 1.584125815851345 -1.7953030516646393 C 1.574570362106938 -1.7923546107650288 1.5695688042493308 -1.7949974159029471 1.5666203633497202 -1.8045528696473543 M 2.07017119233651 -1.9871386375119853 C 2.0737093214160427 -1.9756720930186966 2.0723879188470833 -1.9731713140898932 2.0618769197282356 -1.9699280291003214 L 1.9586780192886395 -1.938084867384526 C 1.9500781109186731 -1.9354312705748762 1.9384587485445386 -1.9391716472963503 1.928821490023843 -1.94666319241103 L 1.8345020217748829 -2.0284912921643143 L 2.038033186530753 -2.091293083326022 M 1.4771371089291792 -1.7214761149062792 C 1.4921741575171938 -1.6727433008098032 1.5299914772109393 -1.6383652506734 1.5787242913074153 -1.6534022992614146 L 1.8309882701597615 -1.731241139011137 C 1.8692100851373898 -1.74303490260958 1.8815890083181945 -1.8012737406893675 1.8917835800036191 -1.832675503508527 C 1.9139247331683324 -1.818576945549051 1.9465876771236248 -1.7941202063515735 1.98098731060349 -1.804734593590172 L 2.127185752892918 -1.8498457393542158 C 2.185474020733801 -1.867831228841841 2.2085985656905884 -1.9115948600959032 2.186780103033469 -1.9823052178045153 L 2.097442343775265 -2.271835466260049 C 2.09331452651581 -2.2852131015022192 2.083311410800596 -2.290498711778056 2.0747115024306293 -2.2878451149684067 C 2.0546450495673745 -2.281653389079224 2.045345801823564 -2.2337835239091692 2.007123986845936 -2.221989760310726 L 1.4787073947802258 -2.0589409785622546 C 1.4404855798025977 -2.047147214963812 1.4058297403221354 -2.0814542519956576 1.3857632874588806 -2.0752625261064748 C 1.3771633790889142 -2.0726089292968255 1.3718777688130772 -2.062605813581611 1.3760055860725322 -2.0492281783394413" fill="#cccccc" fill-rule="nonzero"></path></g><g clip-path="url(&quot;#SvgjsClipPath1001&quot;)"><g clip-path="url(&quot;#a&quot;)"><path d=" M 0.8962628614404717 -2.187108272167171 C 0.7245568744531758 -2.3333798792273472 0.5250338286065364 -2.4475953641069927 0.3073536210173424 -2.523032510139892 L 0.3073536210173424 -2.5241807891433736 C 0.2995453237936667 -2.5268840292974035 0.29135426690216404 -2.528697353223735 0.2835076937117058 -2.5312953344691125 C 0.2516907963235673 -2.541835578821905 0.2194528633008188 -2.5513184495923245 0.18688958456041727 -2.560141059935742 C 0.17232557919959102 -2.564097838001906 0.15792903119343937 -2.5683703927940273 0.14321670646133033 -2.5719635491757558 C 0.09619468126875486 -2.5834559082022683 0.04864636153291724 -2.5936373153664727 0.0002655395195552135 -2.6014312591026045 L 0.0004186433866862904 -2.3765838767333456 L 0.0004186433866862904 -1.31336364043456 C -0.08700366474505317 -1.3628018360302947 -0.18659773031369875 -1.393336488531212 -0.2942488868901073 -1.393336488531212 C -0.6265751839852527 -1.393336488531212 -0.8959757916896012 -1.124347347469778 -0.8959757916896012 -0.7924994999594166 C -0.8959757916896012 -0.4606755749282949 -0.6265751839852527 -0.19167208037931704 -0.2942488868901073 -0.19167208037931704 C 0.03808697919673376 -0.19167208037931704 0.307487586901082 -0.4606755749282949 0.307487586901082 -0.7924994999594166 L 0.3074732334135386 -0.792628681347308 L 0.30737754349658175 -2.1969547646220264 C 0.44264002561087734 -2.13899059742544 0.5682330416166872 -2.0626826731482337 0.6801615374810652 -1.970203152905327 Z M 0.00041864338668595735 -0.7941549355227697 L 0.00041864338668595735 -0.793901357242834 C 0.0003420914531205854 -0.6305825914768026 -0.13223150399468864 -0.49820516035875473 -0.29581820152819915 -0.49820516035875473 C -0.4594431750284924 -0.49820516035875473 -0.5920837534181715 -0.6306543589145199 -0.5920837534181715 -0.7940257541348779 C -0.5920837534181715 -0.9574019338510833 -0.4594431750284924 -1.0898559169026967 -0.29581820152819915 -1.0898559169026967 C -0.13223150399468864 -1.0898559169026967 0.0003420914531205854 -0.9574737012888008 0.00041864338668595735 -0.7941549355227697" fill="#ba8437" transform="matrix(1,0,0,1,0,0)" fill-rule="nonzero"></path></g><g clip-path="url(&quot;#a&quot;)"><path d=" M 0.8953585917252298 -2.1866154690948436 C 0.7237961396133692 -2.3328009552297586 0.524445335617252 -2.44695902615923 0.30695172336612364 -2.522348327233651 L 0.30695172336612364 -2.5235013907329806 C 0.2991482106382961 -2.5261998463911626 0.2909667227384889 -2.528008385821646 0.2831249340438786 -2.5306063670670236 C 0.2513367436308269 -2.541146611419816 0.21912273308731756 -2.5506199131985396 0.18658816132200307 -2.5594377390461096 C 0.17203372495287272 -2.5633945171122736 0.1576515304342645 -2.567667071904395 0.14295355918969865 -2.5712602282861234 C 0.09596980996390625 -2.58274301832094 0.04845976619485126 -2.5929148564934485 0.0001220046441197109 -2.600704015733733 L 0.00027510851125078783 -2.3759858147523656 L 0.00027510851125078783 -1.3133588559387122 C -0.08707543218277125 -1.3627683445593597 -0.18658337682615567 -1.3932838590768857 -0.29413884348560737 -1.3932838590768857 C -0.6261876398215778 -1.3932838590768857 -0.8953585917252297 -1.1244430373867347 -0.8953585917252297 -0.7927817852144392 C -0.8953585917252297 -0.46114445552138283 -0.6261876398215778 -0.19228449584784046 -0.29413884348560726 -0.19228449584784046 C 0.0379147373462112 -0.19228449584784046 0.30708568924986324 -0.46114445552138283 0.30708568924986324 -0.7927817852144392 C 0.30708568924986324 -0.7928296301729176 0.3070713357623198 -0.7928631216438526 0.3070713357623198 -0.7929109666023311 L 0.30697564584536297 -2.196452392558003 C 0.44212330005931033 -2.1385265013282 0.5676062726606201 -2.062256853017776 0.6794390786080413 -1.9698299622291957 Z M 0.00027510851125078783 -0.7944324362819444 L 0.00027510851125078783 -0.7941788580020088 C 0.00019855657768519386 -0.6309557821529341 -0.13226499546562365 -0.49865011847260376 -0.29571294261954684 -0.49865011847260376 C -0.45919916574025293 -0.49865011847260376 -0.5917201317337355 -0.6310227650948042 -0.5917201317337355 -0.7943080393899007 C -0.5917201317337355 -0.957593313684997 -0.45919916574025293 -1.089970744803045 -0.29571294261954684 -1.089970744803045 C -0.13226499546562365 -1.089970744803045 0.00019855657768519386 -0.957660296626867 0.00027510851125078783 -0.7944324362819446 Z" fill="none" transform="matrix(1,0,0,1,0,0)" fill-rule="nonzero" stroke-dasharray="none" stroke-miterlimit="10" stroke-linejoin="miter" stroke-linecap="butt" stroke-width="0.009568991695680769" stroke="#ebebeb"></path></g></g></g><defs><clipPath id="SvgjsClipPath1001"><path d=" M -0.90014308757307 -2.6054885115815734 h 1.80028617514614 v 2.4179885115815734 h -1.80028617514614 Z"></path></clipPath><clipPath id="a"><path d=" M -0.9001430875730702 -0.18750478449584795 L 0.902396585117403 -0.18750478449584795 L 0.902396585117403 -2.6063257983549453 L -0.9001430875730702 -2.6063257983549453 Z"></path></clipPath></defs></svg>